<svg id="Grupo_2706" data-name="Grupo 2706" xmlns="http://www.w3.org/2000/svg" xmlns:xlink="http://www.w3.org/1999/xlink" width="177.101" height="54.817" viewBox="0 0 177.101 54.817">
  <defs>
    <clipPath id="clip-path">
      <rect id="Retângulo_4485" data-name="Retângulo 4485" width="177.101" height="54.817" transform="translate(0 0)" fill="none"/>
    </clipPath>
  </defs>
  <g id="Grupo_2704" data-name="Grupo 2704" transform="translate(0 0)" clip-path="url(#clip-path)">
    <path id="Caminho_2346" data-name="Caminho 2346" d="M45.336,3.417Q42.4.272,36.86.272a12.287,12.287,0,0,0-8.906,3.236c-.063.063-.126.123-.186.186a11.49,11.49,0,0,0-3.159,8.435s.121,10.373,0,13.812a17.563,17.563,0,0,1-1.22,5.918V20.64a7.378,7.378,0,0,1-1.05,1.322,6.941,6.941,0,0,1-5.12,2.115,6.876,6.876,0,0,1-5.094-2.128A7,7,0,0,1,10,16.82a7.021,7.021,0,0,1,2.109-5.133A6.927,6.927,0,0,1,17.219,9.56a6.972,6.972,0,0,1,5.12,2.114A7.314,7.314,0,0,1,23.389,13v-.874a11.478,11.478,0,0,1,3.159-8.434c.06-.063.123-.124.186-.187.112-.107.227-.214.343-.318A16.333,16.333,0,0,0,17.507.269,17.354,17.354,0,0,0,5.1,5.076,15.584,15.584,0,0,0,.029,16.763a16.238,16.238,0,0,0,5,11.749A16.885,16.885,0,0,0,17.217,33.4a17.545,17.545,0,0,0,7.39-1.535,17.105,17.105,0,0,0,4.788-3.3,15.631,15.631,0,0,0,4.946-10.192c.046-.507.066-1.023.066-1.549s-.02-1.025-.066-1.525V12.457q0-2.892,2.062-2.89c1.374,0,2.134.962,2.134,2.89V29.935a3.5,3.5,0,0,0,3.557,3.43h2.619a3.5,3.5,0,0,0,3.557-3.43V12.454q0-5.9-2.936-9.036" transform="translate(0.017 0.157)" fill="#fff"/>
    <path id="Caminho_2347" data-name="Caminho 2347" d="M62.348,27.772a7.01,7.01,0,0,1,.705,2.355q0,1.721-2.91,2.9a6.649,6.649,0,0,1-2.419.636,2.472,2.472,0,0,1-1.5-.431,3.3,3.3,0,0,1-.869-.885q-.472-.857-3.663-8.2l-1.456.091H44.317v5.117a12.6,12.6,0,0,1-.071,1.561,3.52,3.52,0,0,1-.447,1.2q-.656,1.221-3.663,1.223-3.289,0-3.852-1.676A7.278,7.278,0,0,1,36,29.31V4.181a12.6,12.6,0,0,1,.071-1.561,3.532,3.532,0,0,1,.447-1.2Q37.177.2,40.184.2H50.327a13.326,13.326,0,0,1,8.032,2.9,10.725,10.725,0,0,1,3.1,3.8A11.618,11.618,0,0,1,62.68,12.24a11.046,11.046,0,0,1-3.521,8.421q1.029,2.4,3.194,7.11M44.319,16.224h6.01a4.592,4.592,0,0,0,2.725-1,3.46,3.46,0,0,0,1.362-2.988,3.524,3.524,0,0,0-1.362-3.013,4.651,4.651,0,0,0-2.819-1.018H44.319Z" transform="translate(20.667 0.116)" fill="#fff"/>
    <path id="Caminho_2348" data-name="Caminho 2348" d="M76.3,24.807l.844-.589a5.706,5.706,0,0,1,2.256-.905q1.457,0,3.146,2.536a5.163,5.163,0,0,1,1.034,2.536,2.146,2.146,0,0,1-.634,1.585,7.436,7.436,0,0,1-1.48,1.132q-.845.5-1.621.951a17.271,17.271,0,0,1-3.17,1.179,15.951,15.951,0,0,1-4.626.726,18.7,18.7,0,0,1-4.508-.565,19.557,19.557,0,0,1-4.7-1.9,19.341,19.341,0,0,1-4.344-3.26A14.883,14.883,0,0,1,55.326,23.3a16.94,16.94,0,0,1-1.243-6.543A16.227,16.227,0,0,1,55.3,10.345a14.538,14.538,0,0,1,3.124-4.752,17.729,17.729,0,0,1,4.343-3.146A19.546,19.546,0,0,1,72.024,0a18.415,18.415,0,0,1,7.938,1.993l1.127.634q.845.5,1.316.814a2.721,2.721,0,0,1,1.223,2.152A4.229,4.229,0,0,1,82.641,8.1q-1.832,2.446-3.288,2.446a5.059,5.059,0,0,1-2.394-1A8.317,8.317,0,0,0,71.7,8.013a10.513,10.513,0,0,0-6.011,2.037,7.72,7.72,0,0,0-2.348,2.806,8.773,8.773,0,0,0-.938,4.1,8.76,8.76,0,0,0,.938,4.1A7.874,7.874,0,0,0,65.732,23.9,10.3,10.3,0,0,0,71.7,25.9a10.157,10.157,0,0,0,2.747-.362,7.24,7.24,0,0,0,1.854-.726" transform="translate(31.045 0.003)" fill="#fff"/>
    <path id="Caminho_2349" data-name="Caminho 2349" d="M100.2,6.9a11.627,11.627,0,0,1,1.221,5.342,11.459,11.459,0,0,1-1.221,5.32,10.544,10.544,0,0,1-3.148,3.781,13.378,13.378,0,0,1-8.076,2.9H83.1v5.117a12.649,12.649,0,0,1-.069,1.561,3.508,3.508,0,0,1-.447,1.2q-.656,1.221-3.663,1.223-3.289,0-3.853-1.675a7.336,7.336,0,0,1-.28-2.355V4.181a12.65,12.65,0,0,1,.069-1.561,3.52,3.52,0,0,1,.447-1.2Q75.961.2,78.969.2h10.05a13.327,13.327,0,0,1,8.032,2.9A10.526,10.526,0,0,1,100.2,6.9m-8.407,8.331a3.459,3.459,0,0,0,1.362-2.989,3.518,3.518,0,0,0-1.362-3.01A4.644,4.644,0,0,0,88.972,8.21H83.1v8.015h5.918a4.651,4.651,0,0,0,2.772-1" transform="translate(42.93 0.116)" fill="#fff"/>
    <path id="Caminho_2350" data-name="Caminho 2350" d="M115.882,1.561A2.211,2.211,0,0,1,117.22.5a7.8,7.8,0,0,1,2.23-.269,8.459,8.459,0,0,1,2.161.225A3.508,3.508,0,0,1,122.833,1a1.85,1.85,0,0,1,.587.951,6.9,6.9,0,0,1,.28,2.308V29.387a12.608,12.608,0,0,1-.069,1.585,3.525,3.525,0,0,1-.447,1.177q-.659,1.221-3.664,1.221a8.067,8.067,0,0,1-2.536-.271,2.732,2.732,0,0,1-1.174-.859q-10.566-13.585-13.9-17.749v14.9a12.52,12.52,0,0,1-.071,1.585,3.51,3.51,0,0,1-.447,1.179q-.656,1.221-3.663,1.22c-2,0-3.131-.406-3.568-1.22a3.511,3.511,0,0,1-.447-1.225,13.263,13.263,0,0,1-.069-1.585V4.075a5.335,5.335,0,0,1,.447-2.514A2.211,2.211,0,0,1,95.429.5a8.1,8.1,0,0,1,2.3-.269,7.987,7.987,0,0,1,2.229.249,2.9,2.9,0,0,1,1.151.565,12.16,12.16,0,0,1,1.081,1.177q9.907,13,13.242,17.162V4.075a5.335,5.335,0,0,1,.447-2.514" transform="translate(53.754 0.133)" fill="#fff"/>
    <path id="Caminho_2351" data-name="Caminho 2351" d="M6.085,31.621A3.011,3.011,0,0,1,3.01,34.915,2.967,2.967,0,0,1,0,31.659,2.993,2.993,0,0,1,3.087,28.4a2.943,2.943,0,0,1,3,3.219ZM.915,31.63C.915,33,1.631,34.2,3.046,34.2c1.519,0,2.131-1.21,2.131-2.555S4.488,29.12,3.046,29.12.915,30.286.915,31.63" transform="translate(0 16.306)" fill="#fff"/>
    <path id="Caminho_2352" data-name="Caminho 2352" d="M4.637,36.013v-5.3c0-.381,0-.773-.009-1.129h.8a6.953,6.953,0,0,1,.03.729,1.658,1.658,0,0,1,1.565-.836c1.1,0,1.908.891,1.908,2.292,0,1.657-.915,2.539-2.076,2.539a1.472,1.472,0,0,1-1.4-.682v2.383H4.637Zm2.169-5.849c-.99,0-1.388.6-1.388,1.728s.321,1.747,1.321,1.747c.878,0,1.339-.691,1.339-1.827,0-.984-.463-1.646-1.273-1.646Z" transform="translate(2.657 16.926)" fill="#fff"/>
    <path id="Caminho_2353" data-name="Caminho 2353" d="M8.7,32.038c.009.938.5,1.612,1.311,1.612a1.1,1.1,0,0,0,1.151-.719H12a1.94,1.94,0,0,1-2.018,1.382,2.115,2.115,0,0,1-2.114-2.366,2.172,2.172,0,0,1,2.169-2.463,1.982,1.982,0,0,1,2.049,2.174c0,.145,0,.264-.009.381Zm2.547-.554c-.009-.765-.406-1.373-1.217-1.373s-1.218.564-1.3,1.373Z" transform="translate(4.516 16.927)" fill="#fff"/>
    <path id="Caminho_2354" data-name="Caminho 2354" d="M11.222,30.847c0-.645-.009-1.009-.009-1.256h.811c.009.127.03.491.03.938a1.668,1.668,0,0,1,1.6-1.047v.79a1.491,1.491,0,0,0-1.6,1.692V34.2h-.831V30.847Z" transform="translate(6.437 16.926)" fill="#fff"/>
    <path id="Caminho_2355" data-name="Caminho 2355" d="M16.92,33.194a6.9,6.9,0,0,0,.066,1.009h-.793a2.348,2.348,0,0,1-.077-.6,1.537,1.537,0,0,1-1.481.71,1.426,1.426,0,0,1-1.613-1.41c0-1.028.841-1.5,2.263-1.5H16.1V31.01c0-.409-.134-.9-1.029-.9-.793,0-.935.381-1.02.735h-.8c.065-.636.471-1.363,1.848-1.363,1.171,0,1.821.463,1.821,1.508v2.2Zm-.811-1.237h-.774c-.952,0-1.462.255-1.462.9a.825.825,0,0,0,.933.828c1.151,0,1.3-.745,1.3-1.583Z" transform="translate(7.474 16.926)" fill="#fff"/>
    <path id="Caminho_2356" data-name="Caminho 2356" d="M20.509,28.239v5.377c0,.427,0,.856.009,1.3h-.793a4.161,4.161,0,0,1-.047-.653,1.5,1.5,0,0,1-1.5.763c-1.236,0-1.991-.963-1.991-2.364A2.212,2.212,0,0,1,18.331,30.2c.848,0,1.226.327,1.349.592V28.244h.831Zm-2.161,6.114c1.114,0,1.368-.8,1.368-1.81s-.227-1.675-1.3-1.675c-.848,0-1.368.645-1.368,1.766s.549,1.719,1.3,1.719" transform="translate(9.292 16.213)" fill="#fff"/>
    <path id="Caminho_2357" data-name="Caminho 2357" d="M24.062,31.883a2.218,2.218,0,0,1-2.252,2.429,2.185,2.185,0,0,1-2.2-2.41,2.194,2.194,0,0,1,2.256-2.419,2.171,2.171,0,0,1,2.2,2.4Zm-3.6.008c0,1.02.526,1.757,1.384,1.757s1.368-.7,1.368-1.747-.488-1.757-1.387-1.757-1.368.7-1.368,1.747Z" transform="translate(11.256 16.927)" fill="#fff"/>
    <path id="Caminho_2358" data-name="Caminho 2358" d="M23.124,30.847c0-.645-.009-1.009-.009-1.256h.811c.009.127.03.491.03.938a1.668,1.668,0,0,1,1.6-1.047v.79a1.491,1.491,0,0,0-1.6,1.692V34.2h-.831V30.847Z" transform="translate(13.269 16.926)" fill="#fff"/>
    <path id="Caminho_2359" data-name="Caminho 2359" d="M26.849,34.791V28.459H28c.943,1.484,2.991,4.631,3.359,5.312h.009c-.065-.809-.057-1.81-.057-2.84V28.457h.82v6.332H31.047c-.867-1.374-3-4.758-3.4-5.468h-.019c.047.719.047,1.793.047,2.939v2.529h-.822Z" transform="translate(15.412 16.338)" fill="#fff"/>
    <path id="Caminho_2360" data-name="Caminho 2360" d="M34.815,33.194a6.9,6.9,0,0,0,.066,1.009h-.793a2.349,2.349,0,0,1-.077-.6,1.537,1.537,0,0,1-1.481.71,1.426,1.426,0,0,1-1.613-1.41c0-1.028.841-1.5,2.263-1.5h.812V31.01c0-.409-.134-.9-1.029-.9-.793,0-.935.381-1.02.735h-.8c.065-.636.471-1.363,1.848-1.363,1.171,0,1.821.463,1.821,1.508v2.2ZM34,31.956H33.23c-.952,0-1.462.255-1.462.9a.825.825,0,0,0,.933.828c1.151,0,1.3-.745,1.3-1.583Z" transform="translate(17.747 16.926)" fill="#fff"/>
    <path id="Caminho_2361" data-name="Caminho 2361" d="M38.193,32.794a1.878,1.878,0,0,1-1.972,1.521A2.1,2.1,0,0,1,34.09,31.92a2.217,2.217,0,0,1,2.189-2.438A1.723,1.723,0,0,1,38.2,31.02h-.818a1.05,1.05,0,0,0-1.114-.872c-.841,0-1.321.7-1.321,1.747s.463,1.757,1.291,1.757a1.131,1.131,0,0,0,1.141-.856h.82Z" transform="translate(19.569 16.926)" fill="#fff"/>
    <path id="Caminho_2362" data-name="Caminho 2362" d="M37.373,28.24H38.2v.992h-.831Zm0,2.065H38.2v4.612h-.831Z" transform="translate(21.453 16.213)" fill="#fff"/>
    <path id="Caminho_2363" data-name="Caminho 2363" d="M43.031,31.883a2.219,2.219,0,0,1-2.254,2.429,2.185,2.185,0,0,1-2.2-2.41,2.193,2.193,0,0,1,2.254-2.419,2.171,2.171,0,0,1,2.2,2.4Zm-3.6.008c0,1.02.527,1.757,1.385,1.757s1.368-.7,1.368-1.747-.49-1.757-1.387-1.757-1.368.7-1.368,1.747Z" transform="translate(22.145 16.927)" fill="#fff"/>
    <path id="Caminho_2364" data-name="Caminho 2364" d="M42.092,30.755c0-.4,0-.809-.009-1.165h.8a6.727,6.727,0,0,1,.038.756,1.5,1.5,0,0,1,1.5-.864c.926,0,1.6.529,1.6,1.757V34.2H45.2V31.338c0-.7-.283-1.165-1.009-1.165-.905,0-1.264.664-1.264,1.591V34.2h-.831Z" transform="translate(24.157 16.926)" fill="#fff"/>
    <path id="Caminho_2365" data-name="Caminho 2365" d="M49.133,33.194A6.9,6.9,0,0,0,49.2,34.2h-.793a2.348,2.348,0,0,1-.077-.6,1.537,1.537,0,0,1-1.481.71,1.426,1.426,0,0,1-1.613-1.41c0-1.028.841-1.5,2.263-1.5h.811V31.01c0-.409-.132-.9-1.028-.9-.793,0-.935.381-1.02.735h-.8c.065-.636.471-1.363,1.848-1.363,1.17,0,1.821.463,1.821,1.508v2.2Zm-.811-1.237h-.774c-.952,0-1.462.255-1.462.9a.825.825,0,0,0,.933.828c1.151,0,1.3-.745,1.3-1.583Z" transform="translate(25.966 16.926)" fill="#fff"/>
    <rect id="Retângulo_4481" data-name="Retângulo 4481" width="0.831" height="6.677" transform="translate(76.523 44.453)" fill="#fff"/>
    <rect id="Retângulo_4482" data-name="Retângulo 4482" width="0.754" height="9.487" transform="translate(81.399 44.026)" fill="#fff"/>
    <path id="Caminho_2366" data-name="Caminho 2366" d="M55.731,32.007V34.79h-.858V28.458H57.44c1.351,0,2.067.711,2.067,1.692a1.452,1.452,0,0,1-1.124,1.492c.537.135,1,.527,1,1.62v.272a4.234,4.234,0,0,0,.094,1.256h-.848a4.041,4.041,0,0,1-.113-1.365V33.3c0-.9-.264-1.292-1.443-1.292H55.732Zm0-.71h1.425c1.011,0,1.443-.364,1.443-1.073,0-.674-.453-1.055-1.341-1.055H55.731Z" transform="translate(31.499 16.338)" fill="#fff"/>
    <path id="Caminho_2367" data-name="Caminho 2367" d="M59.233,32.038c.009.938.5,1.612,1.311,1.612a1.1,1.1,0,0,0,1.151-.719h.839a1.94,1.94,0,0,1-2.018,1.382A2.115,2.115,0,0,1,58.4,31.946a2.172,2.172,0,0,1,2.169-2.463,1.982,1.982,0,0,1,2.049,2.174c0,.145,0,.264-.009.381Zm2.547-.554c-.009-.765-.406-1.373-1.217-1.373s-1.218.564-1.3,1.373Z" transform="translate(33.524 16.927)" fill="#fff"/>
    <path id="Caminho_2368" data-name="Caminho 2368" d="M65.875,33.784c0,1.483-.631,2.319-2.2,2.319-1.454,0-1.9-.781-1.982-1.409h.841a1.1,1.1,0,0,0,1.179.773c1.085,0,1.351-.664,1.351-1.72v-.371a1.477,1.477,0,0,1-1.492.809,2.04,2.04,0,0,1-1.98-2.282,2.158,2.158,0,0,1,2.065-2.418c.918,0,1.3.408,1.407.718.008-.209.038-.518.047-.608h.774c0,.263-.009.891-.009,1.327v2.865ZM63.761,33.5c1.029,0,1.33-.674,1.33-1.692s-.283-1.656-1.3-1.656c-.886,0-1.338.719-1.338,1.711s.527,1.637,1.311,1.637" transform="translate(35.356 16.927)" fill="#fff"/>
    <path id="Caminho_2369" data-name="Caminho 2369" d="M65.2,28.24h.831v.992H65.2Zm0,2.065h.831v4.612H65.2Z" transform="translate(37.429 16.213)" fill="#fff"/>
    <path id="Caminho_2370" data-name="Caminho 2370" d="M67.163,32.883a1.077,1.077,0,0,0,1.169.8c.7,0,.973-.29.973-.71s-.217-.637-1.132-.847c-1.368-.318-1.651-.727-1.651-1.355s.5-1.291,1.728-1.291,1.744.691,1.8,1.327h-.793a.95.95,0,0,0-1.037-.71c-.669,0-.878.309-.878.608,0,.346.2.518,1.077.719,1.453.335,1.744.8,1.744,1.484,0,.809-.669,1.4-1.859,1.4a1.753,1.753,0,0,1-1.972-1.429h.831Z" transform="translate(38.076 16.926)" fill="#fff"/>
    <path id="Caminho_2371" data-name="Caminho 2371" d="M69.029,30.05h.831V28.685h.82V30.05h1.058V30.7H70.68v2.7c0,.455.112.682.548.682a2.195,2.195,0,0,0,.416-.036v.6a2.239,2.239,0,0,1-.716.082c-.746,0-1.067-.371-1.067-1.136V30.7h-.831Z" transform="translate(39.625 16.469)" fill="#fff"/>
    <path id="Caminho_2372" data-name="Caminho 2372" d="M71.285,30.847c0-.645-.009-1.009-.009-1.256h.811c.009.127.03.491.03.938a1.668,1.668,0,0,1,1.6-1.047v.79a1.491,1.491,0,0,0-1.6,1.692V34.2h-.831V30.847Z" transform="translate(40.914 16.926)" fill="#fff"/>
    <path id="Caminho_2373" data-name="Caminho 2373" d="M77.586,31.883a2.219,2.219,0,0,1-2.254,2.429,2.185,2.185,0,0,1-2.2-2.41,2.193,2.193,0,0,1,2.254-2.419,2.171,2.171,0,0,1,2.2,2.4Zm-3.6.008c0,1.02.527,1.757,1.385,1.757s1.368-.7,1.368-1.747-.49-1.757-1.387-1.757-1.368.7-1.368,1.747Z" transform="translate(41.98 16.927)" fill="#fff"/>
    <path id="Caminho_2374" data-name="Caminho 2374" d="M83.6,33.031A2.479,2.479,0,0,1,80.983,34.9c-1.963,0-2.953-1.439-2.953-3.228s.99-3.274,2.98-3.274A2.38,2.38,0,0,1,83.6,30.311h-.867a1.651,1.651,0,0,0-1.746-1.21c-1.453,0-2.037,1.273-2.037,2.547S79.5,34.2,81.021,34.2a1.679,1.679,0,0,0,1.7-1.173H83.6Z" transform="translate(44.791 16.306)" fill="#fff"/>
    <path id="Caminho_2375" data-name="Caminho 2375" d="M82.273,28.24H83.1v.992h-.831Zm0,2.065H83.1v4.612h-.831Z" transform="translate(47.227 16.213)" fill="#fff"/>
    <path id="Caminho_2376" data-name="Caminho 2376" d="M84.221,29.552c.642,1.884,1.114,3.293,1.264,3.866h.009c.112-.51.622-1.894,1.339-3.866h.839l-1.753,4.612H85l-1.672-4.612Z" transform="translate(47.836 16.966)" fill="#fff"/>
    <path id="Caminho_2377" data-name="Caminho 2377" d="M86.63,28.24h.831v.992H86.63Zm0,2.065h.831v4.612H86.63Z" transform="translate(49.728 16.213)" fill="#fff"/>
    <rect id="Retângulo_4483" data-name="Retângulo 4483" width="0.831" height="6.677" transform="translate(138.593 44.453)" fill="#fff"/>
    <path id="Caminho_2378" data-name="Caminho 2378" d="M95.093,28.239v5.377c0,.427,0,.856.008,1.3h-.792a4.159,4.159,0,0,1-.047-.653,1.5,1.5,0,0,1-1.5.763c-1.236,0-1.991-.963-1.991-2.364A2.212,2.212,0,0,1,92.915,30.2c.848,0,1.226.327,1.349.592V28.244h.831Zm-2.161,6.114c1.114,0,1.368-.8,1.368-1.81s-.227-1.675-1.3-1.675c-.848,0-1.368.645-1.368,1.766s.549,1.719,1.3,1.719" transform="translate(52.105 16.213)" fill="#fff"/>
    <path id="Caminho_2379" data-name="Caminho 2379" d="M98.646,31.883a2.219,2.219,0,0,1-2.254,2.429,2.185,2.185,0,0,1-2.2-2.41,2.193,2.193,0,0,1,2.254-2.419,2.171,2.171,0,0,1,2.2,2.4Zm-3.6.008c0,1.02.527,1.757,1.385,1.757s1.368-.7,1.368-1.747-.49-1.757-1.387-1.757-1.368.7-1.368,1.747Z" transform="translate(54.069 16.927)" fill="#fff"/>
    <path id="Caminho_2380" data-name="Caminho 2380" d="M99.323,28.461h2.52c1.385,0,2.027.71,2.027,1.582a1.393,1.393,0,0,1-.943,1.382,1.563,1.563,0,0,1,1.162,1.509c0,1.192-.944,1.856-2.191,1.856H99.323V28.461Zm2.348,2.637c.952,0,1.321-.364,1.321-.982,0-.564-.416-.955-1.188-.955h-1.632V31.1Zm-1.5,3H101.8c.82,0,1.4-.373,1.4-1.165,0-.682-.453-1.146-1.565-1.146h-1.454V34.1Z" transform="translate(57.014 16.338)" fill="#fff"/>
    <path id="Caminho_2381" data-name="Caminho 2381" d="M103.071,30.847c0-.645-.008-1.009-.008-1.256h.811c.009.127.028.491.028.938a1.67,1.67,0,0,1,1.6-1.047v.79a1.492,1.492,0,0,0-1.6,1.692V34.2h-.831V30.847Z" transform="translate(59.161 16.926)" fill="#fff"/>
    <path id="Caminho_2382" data-name="Caminho 2382" d="M108.77,33.194a7.2,7.2,0,0,0,.065,1.009h-.792a2.277,2.277,0,0,1-.077-.6,1.538,1.538,0,0,1-1.483.71,1.425,1.425,0,0,1-1.612-1.41c0-1.028.839-1.5,2.263-1.5h.811V31.01c0-.409-.132-.9-1.028-.9-.793,0-.935.381-1.02.735h-.8c.066-.636.472-1.363,1.849-1.363,1.169,0,1.821.463,1.821,1.508v2.2Zm-.811-1.237h-.776c-.952,0-1.462.255-1.462.9a.827.827,0,0,0,.935.828c1.151,0,1.3-.745,1.3-1.583Z" transform="translate(60.199 16.926)" fill="#fff"/>
    <path id="Caminho_2383" data-name="Caminho 2383" d="M108.778,32.883a1.078,1.078,0,0,0,1.171.8c.7,0,.971-.29.971-.71s-.217-.637-1.132-.847c-1.368-.318-1.651-.727-1.651-1.355s.5-1.291,1.728-1.291,1.744.691,1.8,1.327h-.793a.95.95,0,0,0-1.037-.71c-.669,0-.878.309-.878.608,0,.346.2.518,1.077.719,1.453.335,1.746.8,1.746,1.484,0,.809-.671,1.4-1.861,1.4a1.753,1.753,0,0,1-1.972-1.429h.831Z" transform="translate(61.965 16.926)" fill="#fff"/>
    <path id="Caminho_2384" data-name="Caminho 2384" d="M111.052,28.24h.831v.992h-.831Zm0,2.065h.831v4.612h-.831Z" transform="translate(63.747 16.213)" fill="#fff"/>
    <rect id="Retângulo_4484" data-name="Retângulo 4484" width="0.831" height="6.677" transform="translate(177.034 44.453)" fill="#fff"/>
  </g>
</svg>
