<svg id="Grupo_2705" data-name="Grupo 2705" xmlns="http://www.w3.org/2000/svg" xmlns:xlink="http://www.w3.org/1999/xlink" width="185.707" height="60.487" viewBox="0 0 185.707 60.487">
  <defs>
    <clipPath id="clip-path">
      <rect id="Ret창ngulo_4480" data-name="Ret창ngulo 4480" width="185.707" height="60.487" fill="none"/>
    </clipPath>
  </defs>
  <g id="Grupo_2702" data-name="Grupo 2702" transform="translate(0 0)" clip-path="url(#clip-path)">
    <path id="Caminho_2306" data-name="Caminho 2306" d="M61.481,22.584h9.3c.064,1.645,1.256,2.468,3.834,2.468,2.891,0,3.834-1.013,3.834-2.342,0-2.087-2.263-2.278-5.155-2.719-4.276-.632-11.316-1.709-11.316-9.236C61.98,4.43,66.946,0,74.678,0s12.508,4.491,12.7,10.123H78.2c-.25-1.455-1.51-2.277-3.395-2.277-2.328,0-3.27,1.2-3.27,2.468,0,1.9,2.263,2.151,5.155,2.594C81.15,13.539,88,14.742,88,22.143,88,28.594,82.724,32.9,74.739,32.9s-13.14-4.3-13.265-10.313Z" transform="translate(-10.537 0)" fill="#fff"/>
    <path id="Caminho_2307" data-name="Caminho 2307" d="M98.617,16.448C98.617,6.961,105.457,0,115.159,0s16.352,6.958,16.352,16.448v2.658H108.317c.745,3.667,3.481,5.313,6.839,5.313,2.673,0,4.664-.571,5.843-2.278h9.639C128.647,28.593,122.8,32.9,115.156,32.9c-9.7,0-16.542-6.959-16.542-16.448ZM121.935,13.1c-1.056-3.226-3.545-4.619-6.779-4.619s-5.72,1.455-6.652,4.619Z" transform="translate(-16.903 0)" fill="#fff"/>
    <path id="Caminho_2308" data-name="Caminho 2308" d="M144.719,14.189C144.719,4.521,150.527,0,159.047,0s14.262,4.456,14.324,14.253v.189h-9.678v-.249c0-4.142-1.935-5.4-4.646-5.4s-4.647,1.254-4.647,5.4V31.835h-9.681V14.189Z" transform="translate(-24.805 0)" fill="#fff"/>
    <path id="Caminho_2309" data-name="Caminho 2309" d="M183.14,16.841C183.14,6.293,190.315,0,199.992,0S217.1,6.8,217.1,16.907c0,10.93-8.2,16.141-15.378,16.141a10.576,10.576,0,0,1-8.969-4.258V45.631H183.14Zm24.219-.317c0-4.511-2.946-7.625-7.3-7.625s-7.306,3.114-7.306,7.625,2.947,7.625,7.306,7.625,7.3-3.114,7.3-7.625" transform="translate(-31.391 0)" fill="#fff"/>
    <path id="Caminho_2310" data-name="Caminho 2310" d="M61.7,53.973a3.541,3.541,0,0,0,1.622.4c.926,0,1.467-.431,1.467-1.055,0-.578-.372-.906-1.32-1.229-1.146-.359-1.85-.88-1.85-1.751,0-.961.906-1.675,2.268-1.675a3.561,3.561,0,0,1,1.549.3l-.25.65a3.113,3.113,0,0,0-1.33-.292c-.958,0-1.321.5-1.321.926,0,.578.428.862,1.4,1.19,1.187.4,1.789.907,1.789,1.814,0,.953-.8,1.778-2.456,1.778a4.008,4.008,0,0,1-1.789-.394l.23-.67Z" transform="translate(-10.537 -8.342)" fill="#fff"/>
    <path id="Caminho_2311" data-name="Caminho 2311" d="M68.711,52.773a1.585,1.585,0,0,0,1.651,1.766,3.009,3.009,0,0,0,1.334-.263l.151.663a3.685,3.685,0,0,1-1.6.315,2.305,2.305,0,0,1-2.368-2.564c0-1.534.857-2.743,2.257-2.743a2.122,2.122,0,0,1,1.988,2.394,3.741,3.741,0,0,1-.029.432Zm2.567-.663c.01-.587-.229-1.5-1.213-1.5-.887,0-1.272.861-1.344,1.5Z" transform="translate(-11.634 -8.561)" fill="#fff"/>
    <path id="Caminho_2312" data-name="Caminho 2312" d="M74.332,51.68c0-.609-.013-1.134-.051-1.617H75.29l.039,1.018h.051a1.876,1.876,0,0,1,1.756-1.134,1.569,1.569,0,0,1,.328.031v.888a2.105,2.105,0,0,0-.393-.031,1.52,1.52,0,0,0-1.549,1.211,2.251,2.251,0,0,0-.052.441v2.766H74.328v-3.57Z" transform="translate(-12.732 -8.561)" fill="#fff"/>
    <path id="Caminho_2313" data-name="Caminho 2313" d="M79.208,51.228l1.1,2.385a9.24,9.24,0,0,1,.454,1.087H80.8a11.124,11.124,0,0,1,.476-1.087l1.089-2.385h1.066l-2.2,4.245h-.971l-2.133-4.245h1.085Z" transform="translate(-13.391 -8.781)" fill="#fff"/>
    <path id="Caminho_2314" data-name="Caminho 2314" d="M86.868,49.185a.531.531,0,0,1-1.061,0,.52.52,0,0,1,.535-.518.506.506,0,0,1,.525.518m-.955,1.282h.859v4.567h-.859Z" transform="translate(-14.708 -8.342)" fill="#fff"/>
    <path id="Caminho_2315" data-name="Caminho 2315" d="M91.53,55.043a2.189,2.189,0,0,1-1.042.3l-.216.429a.725.725,0,0,1,.584.739.792.792,0,0,1-.866.866.981.981,0,0,1-.568-.183l.126-.462a.743.743,0,0,0,.45.162.32.32,0,0,0,.359-.341c-.008-.278-.258-.409-.65-.451l.35-.781c-1.032-.172-1.69-1.175-1.69-2.621,0-1.594.849-2.752,2.168-2.752a1.987,1.987,0,0,1,1.016.267l-.167.729a1.389,1.389,0,0,0-.849-.247c-.926,0-1.425.877-1.425,1.96,0,1.2.6,1.935,1.4,1.935a1.747,1.747,0,0,0,.9-.257l.126.708Z" transform="translate(-15.147 -8.561)" fill="#fff"/>
    <path id="Caminho_2316" data-name="Caminho 2316" d="M98.8,52.557a2.568,2.568,0,0,1-2.7,2.7,2.493,2.493,0,0,1-2.6-2.609,2.559,2.559,0,0,1,2.692-2.7,2.51,2.51,0,0,1,2.614,2.61m-4.307.051a1.673,1.673,0,1,0,1.67-1.972,1.763,1.763,0,0,0-1.67,1.972" transform="translate(-16.025 -8.561)" fill="#fff"/>
    <path id="Caminho_2317" data-name="Caminho 2317" d="M106.669,52.049h-2.2v2.3h2.452v.689h-3.183V48.667h3.057v.689h-2.325v2.013h2.2Z" transform="translate(-17.781 -8.342)" fill="#fff"/>
    <rect id="Ret창ngulo_4479" data-name="Ret창ngulo 4479" width="1.061" height="7.428" transform="translate(90.201 39.264)" fill="#fff"/>
    <path id="Caminho_2318" data-name="Caminho 2318" d="M112.463,52.773c.025,1.251.969,1.766,2.064,1.766a4.578,4.578,0,0,0,1.668-.263l.188.663a5.6,5.6,0,0,1-2,.315c-1.852,0-2.96-1.03-2.96-2.564a2.658,2.658,0,0,1,2.821-2.743,2.3,2.3,0,0,1,2.486,2.394,2.978,2.978,0,0,1-.037.432Zm3.209-.663a1.4,1.4,0,0,0-1.517-1.5,1.667,1.667,0,0,0-1.68,1.5Z" transform="translate(-19.098 -8.561)" fill="#fff"/>
    <path id="Caminho_2319" data-name="Caminho 2319" d="M119.61,48.667v1.4h1.4v.674h-1.4v2.624c0,.606.19.946.734.946a2.4,2.4,0,0,0,.566-.06l.044.665a2.686,2.686,0,0,1-.866.118,1.427,1.427,0,0,1-1.055-.37,1.682,1.682,0,0,1-.376-1.266V50.743h-.832v-.674h.832V48.9l.957-.231Z" transform="translate(-20.196 -8.342)" fill="#fff"/>
    <path id="Caminho_2320" data-name="Caminho 2320" d="M122.982,51.68c0-.609-.008-1.134-.035-1.617h.674l.026,1.018h.034c.193-.7.656-1.134,1.171-1.134a.715.715,0,0,1,.219.031v.888a.949.949,0,0,0-.262-.031c-.544,0-.926.5-1.032,1.211a3.284,3.284,0,0,0-.035.441v2.766h-.761v-3.57Z" transform="translate(-21.074 -8.561)" fill="#fff"/>
    <path id="Caminho_2321" data-name="Caminho 2321" d="M131.034,52.71a2.132,2.132,0,0,1-2.162,2.324,2.075,2.075,0,0,1-2.083-2.25,2.13,2.13,0,0,1,2.154-2.325,2.09,2.09,0,0,1,2.091,2.25m-3.445.045c0,.957.546,1.682,1.318,1.682s1.319-.713,1.319-1.7c0-.74-.369-1.682-1.3-1.682s-1.337.868-1.337,1.7m1.587-4.087.862,1.293h-.611l-.52-.859h-.017l-.519.859h-.584l.844-1.293h.545Z" transform="translate(-21.732 -8.342)" fill="#fff"/>
    <path id="Caminho_2322" data-name="Caminho 2322" d="M133.234,51.469c0-.535-.011-.976-.041-1.4h.8l.051.856h.02a1.8,1.8,0,0,1,1.634-.976c.684,0,1.745.43,1.745,2.206v3.1h-.9V52.262c0-.835-.295-1.533-1.143-1.533a1.292,1.292,0,0,0-1.2.965,1.424,1.424,0,0,0-.061.441v3.118h-.9V51.469Z" transform="translate(-22.83 -8.561)" fill="#fff"/>
    <path id="Caminho_2323" data-name="Caminho 2323" d="M141.938,49.185a.531.531,0,0,1-1.061,0,.52.52,0,0,1,.535-.519.506.506,0,0,1,.525.519m-.955,1.281h.858v4.567h-.858Z" transform="translate(-24.147 -8.342)" fill="#fff"/>
    <path id="Caminho_2324" data-name="Caminho 2324" d="M147.662,54.959a3.74,3.74,0,0,1-1.545.294,2.486,2.486,0,0,1-2.677-2.6,2.67,2.67,0,0,1,2.889-2.706,3.384,3.384,0,0,1,1.355.263l-.223.717a2.339,2.339,0,0,0-1.132-.243,1.916,1.916,0,0,0-.033,3.831,2.959,2.959,0,0,0,1.2-.253l.167.7Z" transform="translate(-24.586 -8.561)" fill="#fff"/>
    <path id="Caminho_2325" data-name="Caminho 2325" d="M153.867,52.557a2.568,2.568,0,0,1-2.7,2.7,2.493,2.493,0,0,1-2.6-2.609,2.559,2.559,0,0,1,2.692-2.7,2.51,2.51,0,0,1,2.614,2.61m-4.307.051a1.674,1.674,0,1,0,1.67-1.972,1.764,1.764,0,0,0-1.67,1.972" transform="translate(-25.464 -8.561)" fill="#fff"/>
    <path id="Caminho_2326" data-name="Caminho 2326" d="M66.734,61.474V67.5c0,.444.011.949.046,1.288h-.917l-.046-.864h-.023a2.134,2.134,0,0,1-1.917.979,2.383,2.383,0,0,1-2.4-2.534,2.5,2.5,0,0,1,2.521-2.68,1.951,1.951,0,0,1,1.7.762h.023V61.474h1.02ZM65.71,65.83a1.492,1.492,0,0,0-.046-.383,1.473,1.473,0,0,0-1.475-1.05A1.718,1.718,0,0,0,62.5,66.325a1.652,1.652,0,0,0,1.661,1.843,1.509,1.509,0,0,0,1.5-1.08,1.458,1.458,0,0,0,.046-.394Z" transform="translate(-10.537 -10.537)" fill="#fff"/>
    <path id="Caminho_2327" data-name="Caminho 2327" d="M69.992,66.861a1.585,1.585,0,0,0,1.651,1.765,3.008,3.008,0,0,0,1.334-.263l.151.663a3.685,3.685,0,0,1-1.6.315,2.3,2.3,0,0,1-2.367-2.564c0-1.534.857-2.743,2.256-2.743A2.122,2.122,0,0,1,73.4,66.429a3.774,3.774,0,0,1-.029.433Zm2.567-.664c.01-.587-.229-1.5-1.213-1.5-.887,0-1.272.86-1.344,1.5Z" transform="translate(-11.854 -10.976)" fill="#fff"/>
    <path id="Caminho_2328" data-name="Caminho 2328" d="M78.127,62.883a14.269,14.269,0,0,1,2.018-.129,4.04,4.04,0,0,1,2.355.515,1.428,1.428,0,0,1,.64,1.2,1.775,1.775,0,0,1-1.533,1.612v.028A1.69,1.69,0,0,1,82.8,67.385a8.618,8.618,0,0,0,.628,1.736H82.341A6.982,6.982,0,0,1,81.8,67.61a1.465,1.465,0,0,0-1.632-1.227h-.989v2.738H78.123V62.887Zm1.052,2.88h1.076c1.124,0,1.835-.478,1.835-1.2,0-.817-.762-1.172-1.87-1.181a5.685,5.685,0,0,0-1.041.074Z" transform="translate(-13.391 -10.756)" fill="#fff"/>
    <path id="Caminho_2329" data-name="Caminho 2329" d="M85.364,66.861a1.585,1.585,0,0,0,1.651,1.765,2.982,2.982,0,0,0,1.331-.263l.151.663a3.685,3.685,0,0,1-1.6.315,2.305,2.305,0,0,1-2.368-2.564c0-1.534.858-2.743,2.257-2.743a2.122,2.122,0,0,1,1.988,2.394,3.774,3.774,0,0,1-.029.433H85.364Zm2.567-.664c.01-.587-.229-1.5-1.213-1.5-.887,0-1.272.86-1.344,1.5Z" transform="translate(-14.488 -10.976)" fill="#fff"/>
    <path id="Caminho_2330" data-name="Caminho 2330" d="M95.175,64.16c-.019.368-.037.781-.037,1.4v2.961a3.164,3.164,0,0,1-.649,2.331,2.241,2.241,0,0,1-1.653.611,2.635,2.635,0,0,1-1.514-.423l.207-.708a2.352,2.352,0,0,0,1.335.4c.847,0,1.464-.5,1.464-1.783v-.568H94.31a1.587,1.587,0,0,1-1.446.853c-1.128,0-1.934-1.076-1.934-2.49,0-1.731,1-2.712,2.048-2.712a1.5,1.5,0,0,1,1.418.884h.019l.036-.77h.723Zm-.856,2.015a1.5,1.5,0,0,0-.046-.423,1.223,1.223,0,0,0-1.155-.981c-.788,0-1.353.749-1.353,1.931,0,1,.451,1.835,1.343,1.835a1.232,1.232,0,0,0,1.147-.95,1.817,1.817,0,0,0,.065-.5v-.916Z" transform="translate(-15.586 -10.976)" fill="#fff"/>
    <path id="Caminho_2331" data-name="Caminho 2331" d="M99.675,63.273a.531.531,0,0,1-1.061,0,.52.52,0,0,1,.535-.519.506.506,0,0,1,.525.519m-.955,1.281h.859v4.567H98.72Z" transform="translate(-16.903 -10.756)" fill="#fff"/>
    <path id="Caminho_2332" data-name="Caminho 2332" d="M101.393,68.295a2.234,2.234,0,0,0,1.166.366c.645,0,.945-.336.945-.757,0-.442-.251-.684-.9-.936-.875-.325-1.284-.829-1.284-1.44a1.526,1.526,0,0,1,1.677-1.492,2.369,2.369,0,0,1,1.2.314l-.221.674a1.817,1.817,0,0,0-.993-.293.72.72,0,0,0-.813.694c0,.421.291.607.925.86.842.335,1.275.777,1.275,1.534,0,.891-.665,1.523-1.817,1.523A2.678,2.678,0,0,1,101.175,69l.221-.7Z" transform="translate(-17.342 -10.976)" fill="#fff"/>
    <path id="Caminho_2333" data-name="Caminho 2333" d="M106.8,62.754v1.4h1.4v.674h-1.4v2.624c0,.6.19.946.734.946a2.4,2.4,0,0,0,.566-.06l.044.665a2.686,2.686,0,0,1-.866.118,1.427,1.427,0,0,1-1.055-.37,1.683,1.683,0,0,1-.376-1.266V64.83h-.832v-.674h.832V62.988l.957-.231Z" transform="translate(-18.001 -10.756)" fill="#fff"/>
    <path id="Caminho_2334" data-name="Caminho 2334" d="M110.192,65.768c0-.61-.013-1.134-.052-1.617h1.01l.038,1.018h.052A1.876,1.876,0,0,1,113,64.035a1.556,1.556,0,0,1,.327.031v.888a2.09,2.09,0,0,0-.392-.031,1.519,1.519,0,0,0-1.549,1.211,2.251,2.251,0,0,0-.052.441v2.766h-1.143v-3.57Z" transform="translate(-18.878 -10.976)" fill="#fff"/>
    <path id="Caminho_2335" data-name="Caminho 2335" d="M119.288,66.645a2.568,2.568,0,0,1-2.7,2.7,2.493,2.493,0,0,1-2.6-2.609,2.559,2.559,0,0,1,2.692-2.7,2.51,2.51,0,0,1,2.614,2.61m-4.307.051a1.674,1.674,0,1,0,1.67-1.972,1.764,1.764,0,0,0-1.67,1.972" transform="translate(-19.537 -10.976)" fill="#fff"/>
    <path id="Caminho_2336" data-name="Caminho 2336" d="M120.6,68.295a2.234,2.234,0,0,0,1.166.366c.644,0,.945-.336.945-.757,0-.442-.251-.684-.9-.936-.875-.325-1.285-.829-1.285-1.44a1.527,1.527,0,0,1,1.678-1.492,2.369,2.369,0,0,1,1.2.314l-.221.674a1.82,1.82,0,0,0-.994-.293.719.719,0,0,0-.812.694c0,.421.29.607.925.86.842.335,1.274.777,1.274,1.534,0,.891-.664,1.523-1.816,1.523A2.674,2.674,0,0,1,120.386,69l.221-.7Z" transform="translate(-20.635 -10.976)" fill="#fff"/>
    <path id="Caminho_2337" data-name="Caminho 2337" d="M129.351,62.875a11.274,11.274,0,0,1,1.709-.121,3.019,3.019,0,0,1,1.934.524,1.636,1.636,0,0,1,.6,1.322,1.789,1.789,0,0,1-.532,1.351,3.008,3.008,0,0,1-2.105.694,3.366,3.366,0,0,1-.716-.056v2.532h-.892V62.875Zm.892,3.046a3.283,3.283,0,0,0,.737.065c1.072,0,1.728-.478,1.728-1.351s-.645-1.236-1.628-1.236a4.107,4.107,0,0,0-.837.065Z" transform="translate(-22.171 -10.756)" fill="#fff"/>
    <path id="Caminho_2338" data-name="Caminho 2338" d="M139.958,67.393c0,.527.01.992.041,1.391h-.8l-.051-.833h-.021a1.869,1.869,0,0,1-1.65.95c-.782,0-1.721-.444-1.721-2.238V63.677h.908v2.828c0,.971.288,1.623,1.111,1.623a1.318,1.318,0,0,0,1.2-.843,1.4,1.4,0,0,0,.081-.476V63.677h.908v3.716Zm-.616-5.919-1.257,1.51h-.65l.908-1.51Z" transform="translate(-23.269 -10.537)" fill="#fff"/>
    <path id="Caminho_2339" data-name="Caminho 2339" d="M142.158,68.787c.022-.339.046-.844.046-1.288V61.474h1v3.133h.023a2.137,2.137,0,0,1,1.9-.918,2.327,2.327,0,0,1,2.341,2.544,2.481,2.481,0,0,1-2.492,2.67,2.037,2.037,0,0,1-1.862-.939h-.034l-.045.824Zm1.046-2a1.426,1.426,0,0,0,1.56,1.389,1.692,1.692,0,0,0,1.688-1.917,1.674,1.674,0,0,0-1.654-1.853,1.592,1.592,0,0,0-1.541,1.111,1.646,1.646,0,0,0-.056.37v.9Z" transform="translate(-24.366 -10.537)" fill="#fff"/>
    <path id="Caminho_2340" data-name="Caminho 2340" d="M153.465,63.273a.531.531,0,0,1-1.061,0,.52.52,0,0,1,.535-.519.506.506,0,0,1,.525.519m-.955,1.281h.859v4.567h-.859Z" transform="translate(-26.123 -10.756)" fill="#fff"/>
    <path id="Caminho_2341" data-name="Caminho 2341" d="M159.188,69.047a3.737,3.737,0,0,1-1.545.294,2.486,2.486,0,0,1-2.677-2.6,2.67,2.67,0,0,1,2.889-2.706,3.4,3.4,0,0,1,1.356.263l-.223.717a2.341,2.341,0,0,0-1.133-.243,1.916,1.916,0,0,0-.033,3.831,2.959,2.959,0,0,0,1.2-.253l.168.7Z" transform="translate(-26.562 -10.976)" fill="#fff"/>
    <path id="Caminho_2342" data-name="Caminho 2342" d="M165.393,66.645a2.568,2.568,0,0,1-2.7,2.7,2.492,2.492,0,0,1-2.6-2.609,2.559,2.559,0,0,1,2.691-2.7,2.51,2.51,0,0,1,2.614,2.61m-4.306.051a1.673,1.673,0,1,0,1.67-1.972,1.763,1.763,0,0,0-1.67,1.972" transform="translate(-27.44 -10.976)" fill="#fff"/>
    <path id="Caminho_2343" data-name="Caminho 2343" d="M167.99,68.295a2.234,2.234,0,0,0,1.166.366c.644,0,.945-.336.945-.757,0-.442-.251-.684-.9-.936-.875-.325-1.285-.829-1.285-1.44a1.527,1.527,0,0,1,1.678-1.492,2.369,2.369,0,0,1,1.2.314l-.221.674a1.82,1.82,0,0,0-.994-.293.719.719,0,0,0-.812.694c0,.421.29.607.925.86.842.335,1.274.777,1.274,1.534,0,.891-.664,1.523-1.816,1.523A2.674,2.674,0,0,1,167.772,69l.221-.7Z" transform="translate(-28.757 -10.976)" fill="#fff"/>
    <path id="Caminho_2344" data-name="Caminho 2344" d="M38.2,0V40.165A19.28,19.28,0,0,1,18.908,59.426H0V19.248c0-.163,0-.321.007-.484A19.28,19.28,0,0,1,19.294,0Z" transform="translate(0 0)" fill="#03894c"/>
    <path id="Caminho_2345" data-name="Caminho 2345" d="M38.641,26.9v18.01c0,10.565-8.853,19.131-19.771,19.131H2.561V46.026c0-10.565,8.853-19.131,19.771-19.131Z" transform="translate(-0.439 -4.61)" fill="#0da053"/>
  </g>
</svg>
